Coordinates
version=1
nRows=13
nColumns=36
inDegrees=yes

Units are S.I. units (second, meters, Newtons, ...)
If the header above contains a line with 'inDegrees', this indicates whether rotational values are in degrees (yes) or radians (no).

endheader
time	pelvis_tilt	pelvis_list	pelvis_rotation	pelvis_tx	pelvis_ty	pelvis_tz	hip_flexion_r	hip_adduction_r	hip_rotation_r	knee_angle_r	knee_angle_r_beta	ankle_angle_r	subtalar_angle_r	mtp_angle_r	hip_flexion_l	hip_adduction_l	hip_rotation_l	knee_angle_l	knee_angle_l_beta	ankle_angle_l	subtalar_angle_l	mtp_angle_l	lumbar_extension	lumbar_bending	lumbar_rotation	arm_flex_r	arm_add_r	arm_rot_r	elbow_flex_r	pro_sup_r	arm_flex_l	arm_add_l	arm_rot_l	elbow_flex_l	pro_sup_l
      1.81000000	    -13.00984816	     -1.79090756	      1.38923470	     -0.33395098	      0.81575073	     -0.58771944	     62.83899731	      3.93604154	      0.69152874	     82.31781812	      1.43671696	     30.63376607	    -18.73686230	     -7.48554336	     63.34054452	     -1.57919572	      3.06702129	     82.54161944	      1.44062303	     31.26804055	    -13.47803234	     -7.48554336	    -24.26920767	      0.83226762	     -0.89987787	     16.68325946	    -11.19776110	     -2.61950954	     81.43670477	    110.42629056	      5.92852249	    -13.00437912	     -3.89617898	     65.24947780	     91.03939099
      1.82000000	    -12.61191215	     -1.62284793	      1.62430007	     -0.32962985	      0.81477039	     -0.58881410	     62.36956598	      3.68538476	      0.82839393	     82.94604602	      1.44768160	     31.00947632	    -18.98402154	     -7.48563027	     62.81365422	     -1.23819951	      2.98096403	     82.96850471	      1.44807358	     31.57941425	    -13.58283042	     -7.48563027	    -23.53810261	      0.67045710	     -1.09204800	     18.87437753	    -11.96471419	     -1.53819066	     83.56900197	    110.65175556	      7.89969386	    -12.90376091	     -3.77341782	     67.46313679	     91.26138749
      1.83000000	    -11.98237023	     -1.47499099	      1.77010887	     -0.32507216	      0.81516154	     -0.58941123	     61.44957571	      3.57374643	      0.99929573	     83.22222081	      1.45250176	     31.66815019	    -18.72869060	     -7.48619814	     61.84261998	     -1.09702398	      2.82772983	     83.09195755	      1.45022824	     32.20568491	    -13.33224001	     -7.48619814	    -23.07900068	      0.48567553	     -2.00197916	     22.22062130	    -12.73999297	      0.77435038	     85.77263141	    110.98441242	      9.19243020	    -13.43514799	     -4.66451480	     71.71657502	     91.52924885
      1.84000000	    -11.51216396	     -1.36147059	      1.95049204	     -0.32033004	      0.81586000	     -0.59000027	     60.69498983	      3.44094814	      1.09791831	     83.51787871	      1.45766197	     31.83945169	    -18.95083277	     -7.48629840	     61.03995699	     -0.95328374	      2.71753226	     83.22432592	      1.45253851	     32.43724781	    -13.34430456	     -7.48629840	    -22.10812620	      0.35102148	     -2.03510745	     25.40787413	    -14.07622719	      2.05058955	     88.34541101	    111.23767812	     11.87361079	    -14.14425148	     -4.13187125	     74.68212881	     91.87571728
      1.85000000	    -10.89588238	     -1.21324797	      2.18581776	     -0.31547392	      0.81802442	     -0.59084235	     59.60831470	      3.15480929	      1.13026075	     83.51063667	      1.45753557	     31.95399505	    -18.99622933	     -7.48641815	     59.90740790	     -0.76987959	      2.57530682	     83.05062498	      1.44950685	     32.68393709	    -13.19576113	     -7.48641815	    -21.28863781	      0.23907653	     -2.28566813	     29.27053745	    -15.54428288	      3.47359743	     91.08619237	    111.47596283	     14.81512234	    -15.30948842	     -3.48675073	     78.13870907	     92.30801205
      1.86000000	    -10.33875235	     -1.04073666	      2.51997685	     -0.31067057	      0.82110298	     -0.59208184	     58.48659897	      2.67966404	      1.08323867	     83.37062549	      1.45509191	     32.05191982	    -18.91159770	     -7.48653614	     58.75295524	     -0.46551445	      2.43783648	     82.68816554	      1.44318074	     32.85724969	    -13.03263478	     -7.48653614	    -20.30073520	      0.16770769	     -2.67176033	     33.72033421	    -17.34414010	      5.13398684	     93.67605031	    111.66393287	     18.19001403	    -16.70790026	     -2.74940123	     81.57906814	     92.77476520
      1.87000000	     -9.78352658	     -0.89122572	      2.70721944	     -0.30580517	      0.82522452	     -0.59284080	     57.27646655	      2.34562481	      1.01717309	     83.00890669	      1.44877873	     32.08179719	    -18.79840690	     -7.48664130	     57.48536961	     -0.33478741	      2.26758364	     82.17512960	      1.43422657	     32.90043452	    -12.83819682	     -7.48664130	    -19.25248990	      0.04796960	     -2.88657447	     38.67215211	    -19.52178166	      7.21039933	     96.17714873	    111.83458522	     21.98756295	    -18.65746496	     -1.73448058	     85.18259075	     93.28637321
      1.88000000	     -9.05283138	     -0.88761955	      2.78905317	     -0.30072156	      0.83108719	     -0.59294282	     55.61433559	      2.42723960	      1.08826915	     82.18823330	      1.43445528	     32.10374539	    -18.81158754	     -7.48726125	     55.87001776	     -0.55410085	      2.08451110	     81.40147732	      1.42072380	     33.20775132	    -12.26093961	     -7.48726125	    -18.36417618	      0.09378289	     -3.70918772	     45.02133301	    -21.00878230	     10.42497632	     97.45153127	    111.21557776	     25.49821603	    -21.34889466	     -1.43432216	     89.15982365	     93.97616955
      1.89000000	     -8.50774695	     -0.79054646	      2.86142008	     -0.29549943	      0.83791853	     -0.59304816	     54.04767897	      2.44075924	      1.22754374	     81.18215791	      1.41689595	     31.85832018	    -18.98412299	     -7.48744262	     54.29763998	     -0.70932339	      1.79341858	     80.33147242	      1.40204869	     33.04891157	    -12.00070720	     -7.48744262	    -17.23455679	     -0.04992538	     -3.79113127	     51.16078308	    -23.15146473	     12.92312421	     99.15354395	    111.18048832	     30.22471531	    -24.00490724	      0.21816952	     92.28833106	     94.42208579
      1.90000000	     -7.99027550	     -0.73466050	      2.97500651	     -0.29021001	      0.84620524	     -0.59358629	     52.33146149	      2.36025765	      1.23028264	     79.81532680	      1.39304025	     31.23997924	    -19.41537545	     -7.48825978	     52.58405815	     -0.76190526	      1.62342994	     78.95582597	      1.37803913	     32.81047224	    -11.73171130	     -7.48825978	    -16.10182321	     -0.00741701	     -4.27066597	     58.23386680	    -24.80352656	     16.20284192	     99.91998123	    109.92451464	     34.92389133	    -26.90846248	      1.33791332	     95.55034440	     94.61254729
      1.91000000	     -7.49526946	     -0.63940310	      3.05823119	     -0.28472192	      0.85602166	     -0.59415820	     50.45161137	      2.20048142	      1.21978446	     78.12497296	      1.36353801	     30.77998070	    -19.43011568	     -7.48851969	     50.69002040	     -0.79683545	      1.38305602	     77.20864351	      1.34754504	     32.31610493	    -11.61377531	     -7.48851969	    -14.98205040	     -0.04099408	     -4.35042039	     65.41166704	    -26.58317895	     19.11538795	    100.58624281	    109.67358037	     40.48599859	    -29.80962136	      3.30267852	     98.04473041	     94.77586476
      1.92000000	     -7.01846548	     -0.63007167	      3.14276232	     -0.27899843	      0.86736469	     -0.59464181	     48.38626694	      2.10543889	      1.13184132	     76.02795141	      1.32693808	     29.97186069	    -19.59682620	     -7.48884742	     48.67998283	     -0.95283167	      1.15382567	     75.16464042	      1.31187046	     31.52939382	    -11.42690562	     -7.48884742	    -13.89891262	      0.01713467	     -4.43759386	     72.94199780	    -28.14650958	     22.29737485	    100.74254766	    109.33253402	     46.40298457	    -32.84120620	      5.46130877	    100.31493623	     94.73206500
      1.93000000	     -6.57026721	     -0.62080428	      3.24514130	     -0.27299302	      0.88017670	     -0.59503714	     46.16957703	      2.00726612	      1.05610974	     73.60225568	      1.28460170	     29.06385615	    -19.61248296	     -7.48904762	     46.53386513	     -1.11158668	      0.94107098	     72.78555024	      1.27034750	     30.57947705	    -11.17148074	     -7.48904762	    -12.82130719	      0.07206380	     -4.56495044	     80.60773657	    -29.64736846	     25.84427007	    100.55243663	    109.12867389	     52.69542829	    -36.04442616	      8.03007345	    102.16047037	     94.74909644
